<svg xmlns="http://www.w3.org/2000/svg" width="401.893" height="272.523"><defs><style>.d,.e{fill:#adc7ff}.b{fill:#0f44b8}.c{fill:#fff}.d{opacity:.5}.f{fill:#333;opacity:.25}.g{fill:none;stroke-linecap:round;stroke:#adc7ff}.g,.l{stroke-miterlimit:10}.i{fill:#5287b5}.j{fill:#93be8c}.l{fill:#e6b43e;stroke-width:2px;stroke:#ffdf78}</style></defs><g transform="translate(-732.596 -470.05)"><path d="M1059.538 537.576c-25.832-1.56-39.947 1.675-76.586-30.294s-59.923-39.437-83.392-36.717c-38.587 4.472-61.973 21.282-76.64 64.293-14.737 43.214-72.547 45.358-79.433 95.328-6.251 45.361 18.728 82.574 73.294 95.633h206.473a123.9 123.9 0 0 1 16.135-4.229c70.934-13.336 90.981-83.825 90.981-83.825 21.192-86.586-45.001-98.629-70.832-100.189z" opacity=".2" fill="#adc7ff"/><path class="b" d="M1030.983 726.958H822.561a1 1 0 0 1 0-2h208.422a1 1 0 0 1 0 2zm-57.465 15.615h-4.7a1 1 0 0 1 0-2h4.7a1 1 0 0 1 0 2zm-8.34 0h-86.827a1 1 0 0 1 0-2h86.827a1 1 0 0 1 0 2zm-146.864-15.615h-5.274a1 1 0 0 1 0-2h5.274a1 1 0 0 1 0 2z"/><rect class="c" width="137.01" height="130.912" rx="11.988" transform="rotate(6.49 -4544.647 8814.467)"/><rect class="d" width="89.82" height="38.096" rx="5.445" transform="rotate(6.49 -4817.227 9086.468)"/><path class="e" d="M1101.3 600.943l.764-6.687a8.8 8.8 0 0 0-7.741-9.736l-118.646-13.543a8.8 8.8 0 0 0-9.736 7.741l-.763 6.687z"/><path class="b" d="M1102.272 602.161l-138.313-15.787.889-7.781a9.906 9.906 0 0 1 10.954-8.709l118.648 13.543a9.906 9.906 0 0 1 8.71 10.954zM966.4 584.437l133.939 15.288.638-5.594a7.7 7.7 0 0 0-6.772-8.518L975.552 572.07a7.7 7.7 0 0 0-8.518 6.773z"/><rect class="c" width="10.523" height="1.759" rx=".88" transform="rotate(6.49 -4617.803 8892.461)"/><circle class="c" cx="3.25" cy="3.25" r="3.25" transform="translate(1066.643 586.767)"/><circle class="c" cx="3.25" cy="3.25" r="3.25" transform="translate(1077.03 587.953)"/><circle class="c" cx="3.25" cy="3.25" r="3.25" transform="translate(1086.939 589.084)"/><rect class="d" width="42.029" height="7.93" rx="3.965" transform="rotate(6.49 -5286.433 9477.53)"/><rect class="d" width="107.194" height="7.93" rx="3.965" transform="rotate(6.49 -5435.799 8895.507)"/><path class="b" d="M1079.354 715.681l-118.648-13.543A9.907 9.907 0 0 1 952 691.183l12.852-112.59a9.906 9.906 0 0 1 10.954-8.709l118.648 13.543a9.906 9.906 0 0 1 8.71 10.954l-12.851 112.59a9.909 9.909 0 0 1-10.959 8.71zM975.552 572.07a7.7 7.7 0 0 0-8.518 6.773l-12.851 112.59a7.7 7.7 0 0 0 6.772 8.518l118.645 13.543a7.7 7.7 0 0 0 8.518-6.773l12.851-112.59a7.7 7.7 0 0 0-6.772-8.518z"/><path class="f" d="M1038.389 578.135l-59.54-6.8a11.988 11.988 0 0 0-13.27 10.551l-12.128 106.25A11.989 11.989 0 0 0 964 701.406l74.386 8.491z"/><rect class="c" width="137.01" height="130.912" rx="11.988" transform="rotate(-6.838 5275.097 -5921.1)"/><rect class="d" width="89.82" height="38.096" rx="5.445" transform="rotate(-6.78 5513.727 -6073.352)"/><path class="e" d="M880.387 585.051l-.8-6.683a8.794 8.794 0 0 0-9.78-7.685L751.236 584.9a8.794 8.794 0 0 0-7.685 9.779l.8 6.684z"/><path class="b" d="M881.611 586.013L743.39 602.587l-.932-7.775a9.908 9.908 0 0 1 8.647-11l118.57-14.218a9.908 9.908 0 0 1 11 8.647zm-136.3 14.127l133.85-16.05-.671-5.591a7.7 7.7 0 0 0-8.556-6.724l-118.57 14.218a7.7 7.7 0 0 0-6.724 8.556z"/><rect class="c" width="10.523" height="1.759" rx=".88" transform="rotate(-6.838 5335.42 -6002.687)"/><circle class="c" cx="3.25" cy="3.25" r="3.25" transform="translate(844.053 578.423)"/><circle class="c" cx="3.25" cy="3.25" r="3.25" transform="translate(854.433 577.178)"/><circle class="c" cx="3.25" cy="3.25" r="3.25" transform="translate(864.335 575.991)"/><rect class="d" width="44.608" height="7.93" rx="3.965" transform="rotate(-6.838 5933.497 -6082.609)"/><rect class="d" width="107.194" height="7.93" rx="3.965" transform="rotate(-6.838 6106.01 -6095.945)"/><path class="b" d="M885.523 701.756l-118.569 14.218a9.907 9.907 0 0 1-11-8.647l-13.496-112.515a9.908 9.908 0 0 1 8.647-11l118.57-14.218a9.908 9.908 0 0 1 11 8.647l13.495 112.512a9.906 9.906 0 0 1-8.647 11.003zM751.367 585.993a7.7 7.7 0 0 0-6.724 8.556l13.492 112.516a7.7 7.7 0 0 0 8.556 6.724l118.57-14.218a7.7 7.7 0 0 0 6.724-8.556L878.493 578.5a7.7 7.7 0 0 0-8.556-6.724z"/><path class="f" d="M879.966 581.539a11.988 11.988 0 0 0-13.33-10.476l-58.453 7.009v131.85l74.039-8.879a11.988 11.988 0 0 0 10.476-13.33z"/><circle class="g" cx="2.791" cy="2.791" r="2.791" transform="translate(1103.224 692.703)"/><circle class="g" cx="2.625" cy="2.625" r="2.625" transform="translate(1042.258 555.2)"/><path class="g" d="M735.997 688.712v5.802m2.901-2.901h-5.802"/><circle class="g" cx="2.625" cy="2.625" r="2.625" transform="translate(799.423 539.742)"/><path class="g" d="M793.258 524.313v7.51m3.755-3.755h-7.51"/><rect class="c" width="186.75" height="178.438" rx="11.988" transform="translate(829.904 547.243)"/><path class="e" d="M1016.654 568.406v-9.174a11.989 11.989 0 0 0-11.988-11.989H841.892a11.989 11.989 0 0 0-11.992 11.989v9.174z"/><path class="b" d="M1018.154 569.906H828.4v-10.675a13.5 13.5 0 0 1 13.489-13.488h162.772a13.5 13.5 0 0 1 13.489 13.488zm-186.75-3h183.75v-7.675a10.5 10.5 0 0 0-10.489-10.488H841.893a10.5 10.5 0 0 0-10.493 10.488z"/><rect class="c" width="14.344" height="2.398" rx="1.199" transform="translate(842.56 557.825)"/><circle class="c" cx="4.43" cy="4.43" r="4.43" transform="translate(967.998 554.035)"/><circle class="c" cx="4.43" cy="4.43" r="4.43" transform="translate(982.248 554.035)"/><circle class="c" cx="4.43" cy="4.43" r="4.43" transform="translate(995.841 554.035)"/><rect class="d" width="146.109" height="10.809" rx="5.405" transform="translate(849.732 655.66)"/><rect class="d" width="146.109" height="10.809" rx="5.405" transform="translate(850.224 683.785)"/><path class="b" d="M1004.665 727.182H841.893a13.5 13.5 0 0 1-13.493-13.489V559.231a13.5 13.5 0 0 1 13.489-13.488h162.772a13.5 13.5 0 0 1 13.489 13.488v154.462a13.5 13.5 0 0 1-13.485 13.489zM841.893 548.743a10.5 10.5 0 0 0-10.493 10.488v154.462a10.5 10.5 0 0 0 10.489 10.489h162.772a10.5 10.5 0 0 0 10.489-10.489V559.231a10.5 10.5 0 0 0-10.489-10.488z"/><path d="M964.845 587.88a16.451 16.451 0 0 0 1.645.593 53.685 53.685 0 0 1 6.8 2.973c.1.051.194.107.334.184a13.769 13.769 0 0 0-1.388.658 1.053 1.053 0 0 1-1.183-.016 50.3 50.3 0 0 0-7.885-3.362.678.678 0 0 1-.322-.147l1.812-.883z" fill="#5288b6"/><path class="i" d="M965.694 598.17c.07.044.132.079.191.118a79.182 79.182 0 0 1 11.739 9.256c.524.508 1.033 1.029 1.558 1.536.148.14.152.235 0 .389-.745.759-1.479 1.528-2.211 2.3-.121.127-.191.184-.351.023a97.243 97.243 0 0 0-13.393-11.309c-.342-.245-.345-.248-.005-.5q1.134-.841 2.273-1.677c.064-.048.131-.09.199-.136z"/><path class="j" d="M968.87 596.1l.193.114a65.989 65.989 0 0 1 8.9 6.5q1.986 1.724 3.829 3.6c.158.161.186.25.011.425-.6.6-1.187 1.219-1.765 1.844-.155.168-.235.134-.377-.011a74.394 74.394 0 0 0-12.147-9.966c-.345-.23-.692-.459-1.042-.681-.134-.086-.21-.141-.021-.264.768-.491 1.529-.992 2.293-1.49.039-.025.084-.044.126-.071zm-1.703-1.067l-.674.421a61.142 61.142 0 0 0-9.4 7.177q-1.233 1.151-2.4 2.371c-.149.154-.233.161-.377 0q-.593-.672-1.214-1.318c-.14-.147-.151-.23 0-.385a59.123 59.123 0 0 1 4.6-4.282 57.16 57.16 0 0 1 7.037-5.022.423.423 0 0 1 .491-.013c.634.35 1.265.688 1.937 1.051z"/><path class="i" d="M964.522 593.615c-.061.112-.163.14-.247.194a55.562 55.562 0 0 0-11.417 9.148c-.174.181-.265.21-.435 0a12.73 12.73 0 0 0-.9-.982c-.166-.165-.162-.26 0-.43a56.32 56.32 0 0 1 5.066-4.628 54.732 54.732 0 0 1 5.68-4 .65.65 0 0 1 .764-.044c.479.267.99.494 1.489.742zm9.247 3.311c.8-.472 1.519-.911 2.253-1.332q2.745-1.59 5.621-2.934a.385.385 0 0 1 .462.036 96.62 96.62 0 0 0 1.715 1.256c.181.129.237.2-.009.341-2.425 1.37-4.769 2.864-7.073 4.431-.119.081-.215.165-.372.042a44.339 44.339 0 0 0-2.44-1.753 1.628 1.628 0 0 0-.157-.087z"/><path class="j" d="M981.445 592.228c-.748.351-1.425.667-2.1.991q-3 1.457-5.86 3.192a.371.371 0 0 1-.461 0c-.753-.491-1.515-.964-2.318-1.473.425-.236.817-.459 1.213-.675a58.988 58.988 0 0 1 7.153-3.3c.1-.038.2-.1.314-.025.668.417 1.334.836 2.059 1.29zm-10.251.541c-.733.4-1.434.771-2.135 1.153-.129.07-.21-.027-.3-.077a57.171 57.171 0 0 0-7.413-3.4l-.907-.342c-.006 0-.008-.016-.03-.07.445-.239.911-.451 1.338-.73a1.343 1.343 0 0 1 1.322-.1 58.214 58.214 0 0 1 7.815 3.388l.31.178z"/><path d="M867.7 630.075a10.572 10.572 0 0 1-3.763-1.066 1.284 1.284 0 0 1-.421-.317v-.211c.5-.981.836-2.026 1.238-3.043.145-.367.28-.426.654-.3a14.392 14.392 0 0 0 6.663.677 3.474 3.474 0 0 0 1.063-.329 1.69 1.69 0 0 0 .393-2.926 6.506 6.506 0 0 0-1.792-1.029c-1.139-.491-2.29-.957-3.416-1.473a8.449 8.449 0 0 1-2.753-1.973 5.554 5.554 0 0 1 1.415-8.519 10.818 10.818 0 0 1 5.934-1.122A14.166 14.166 0 0 1 878 609.69c.309.14.338.255.211.543-.4.911-.786 1.823-1.143 2.748-.136.351-.3.383-.634.281a13.52 13.52 0 0 0-5.3-.689 2.784 2.784 0 0 0-1.352.437 1.339 1.339 0 0 0-.21 2.114 4.3 4.3 0 0 0 1.328.876c1.1.5 2.2.979 3.3 1.478a11.879 11.879 0 0 1 3.317 2.092 5.686 5.686 0 0 1-.846 9.028 10.577 10.577 0 0 1-4.671 1.475 24.184 24.184 0 0 1-4.3.002zm51.514-7.798c-.181-4.37-.039-8.742-.094-13.113 0-.358.111-.446.455-.442 1.4.018 2.808.022 4.211 0 .372-.006.428.129.428.456q-.012 10.077 0 20.155c0 .369-.091.477-.468.473q-2.559-.03-5.119 0a.737.737 0 0 1-.739-.451q-3.661-6.429-7.347-12.845c-.105-.184-.216-.367-.335-.57-.161.132-.083.3-.077.436.194 4.278.042 8.565.106 12.847.007.474-.117.6-.586.585-1.368-.033-2.735-.02-4.1-.005-.321 0-.424-.089-.421-.421q.012-10.131 0-20.261c0-.3.074-.4.384-.4 1.725.013 3.448.021 5.172-.005.355-.006.453.2.584.426l7.725 13.489.107.183c.055-.032.087.2.131.025a.96.96 0 0 0-.017-.562zm50.75 7.906c.234-1.11.593-2.186.929-3.266.141-.457.1-.658-.411-.792a8.091 8.091 0 0 1-3.776-2.087c-.8-.805-1.551-1.663-2.337-2.485-.2-.2-.153-.287.07-.427a6.33 6.33 0 0 0 3.063-6.344 5.928 5.928 0 0 0-3.27-5.032 8.792 8.792 0 0 0-4-.993c-2.875-.04-5.757-.016-8.636-.035-.339 0-.409.105-.408.424q.012 10.1 0 20.2c0 .4.151.456.495.452a140.09 140.09 0 0 1 4.1 0c.409.008.538-.093.533-.522-.024-2.1 0-4.193-.019-6.29 0-.368.089-.495.469-.475a14.936 14.936 0 0 0 1.758-.01.84.84 0 0 1 .766.35c1.077 1.254 2.147 2.513 3.264 3.729a10.339 10.339 0 0 0 6.18 3.489 6.9 6.9 0 0 0 1.23.114zm-10.5-11.321a19.1 19.1 0 0 1-2.869.122c-.312.006-.281-.179-.281-.377v-2.769c0-.888.012-1.776-.006-2.665-.006-.324.049-.477.427-.463a20.228 20.228 0 0 1 3.607.18 2.2 2.2 0 0 1 1.929 2.04 3.124 3.124 0 0 1-2.81 3.932zM902.35 629.3q-3.408-10.073-6.782-20.156a.518.518 0 0 0-.6-.421 282.53 282.53 0 0 1-5.6 0 .61.61 0 0 0-.681.481q-3.276 8.565-6.58 17.123c-.437 1.136-.866 2.275-1.322 3.472 1.559 0 3.05-.013 4.54.009a.626.626 0 0 0 .723-.491c.62-1.753 1.293-3.491 1.928-5.24a.546.546 0 0 1 .606-.436q3.12.025 6.241 0a.516.516 0 0 1 .586.441c.561 1.775 1.145 3.542 1.7 5.316a.489.489 0 0 0 .561.409c1.439-.017 2.879-.022 4.318 0 .434.007.503-.091.362-.507zm-8.625-9.347c-1.3-.011-2.591-.007-3.887 0-.2 0-.345-.005-.258-.288.786-2.547 1.563-5.1 2.376-7.762l1.428 5.452c.2.754.381 1.511.592 2.26.073.26.025.34-.252.338zm54.7 9.376q-3.417-10.1-6.8-20.208a.49.49 0 0 0-.561-.4c-1.884.014-3.769.019-5.652 0a.573.573 0 0 0-.644.453c-.753 2.009-1.532 4.007-2.3 6.009l-5.4 14.047c-.217.565-.216.566.354.567 1.333 0 2.665-.014 4 .008a.6.6 0 0 0 .689-.467c.625-1.753 1.292-3.491 1.926-5.241a.576.576 0 0 1 .644-.46q3.093.035 6.185 0c.381 0 .514.134.62.471.552 1.758 1.14 3.506 1.683 5.266a.509.509 0 0 0 .6.43c.71-.023 1.422-.007 2.133-.007.729 0 1.458-.02 2.186.007.407.014.468-.089.337-.475zm-8.588-9.377c-1.4-.008-2.8 0-4.27 0l2.454-8.059c.7 2.67 1.353 5.2 2.019 7.738.06.207.081.324-.203.321z" fill="#3a3e47"/><path class="l" d="M926.97 628h-4.335a26.671 26.671 0 0 0-26.672 26.671v58.089h57.679v-58.092A26.671 26.671 0 0 0 926.97 628zm17.5 55.317a16.993 16.993 0 0 1-16.993 16.993h-5.355a16.993 16.993 0 0 1-16.993-16.993v-28.822a16.993 16.993 0 0 1 16.996-16.995h5.355a16.993 16.993 0 0 1 16.993 16.993z"/><path class="l" d="M885.061 674.829h79.483a5.71 5.71 0 0 1 5.707 5.71v39.857a21.177 21.177 0 0 1-21.174 21.177h-48.549a21.177 21.177 0 0 1-21.177-21.177v-39.857a5.71 5.71 0 0 1 5.71-5.71z"/><path d="M956.8 718.9a16.4 16.4 0 0 1-11.249 11.908" stroke-linejoin="round" stroke-width="3" stroke="#ffdf78" fill="none" stroke-linecap="round"/><path d="M931.725 717.525l-4.089-13.046a6.779 6.779 0 1 0-6.09-.061l-3.619 13.113a.156.156 0 0 0 .15.2h13.5a.156.156 0 0 0 .148-.206z" fill="#cc8b23"/></g></svg>