<svg xmlns="http://www.w3.org/2000/svg" xmlns:xlink="http://www.w3.org/1999/xlink" width="381.316" height="284.747"><defs><style>.c{fill:#adc7ff}.b{fill:#0f44b8}.f,.j{fill:none;stroke-miterlimit:10}.f{stroke:#adc7ff;stroke-linecap:round}.g{fill:#fff}.i{fill:#e6b43e}.j{stroke:#ffdf78;stroke-width:2px}.p{fill:#5287b5}.q{fill:#93be8c}</style><linearGradient id="a" x1="12.724" y1="-49.122" x2="13.424" y2="-49.122" gradientUnits="objectBoundingBox"><stop offset="0" stop-color="#ffdf78"/><stop offset="1" stop-color="#e6b43e"/></linearGradient><linearGradient id="b" x1="96.456" y1="-59.077" x2="97.456" y2="-59.077" xlink:href="#a"/></defs><g transform="translate(-919.043 -852.748)"><path d="M1221.608 923.7c-27.14-1.639-41.972 1.759-80.467-31.831s-62.961-41.436-87.62-38.578c-40.542 4.7-69.351 28.317-76.07 75.588-5.073 35.691-1.155 40.119-33.187 103.935-21.583 43 3.573 73.405 22.283 88.67h216.94a129.992 129.992 0 0 1 16.952-4.444c74.53-14.012 95.593-88.074 95.593-88.074 22.266-90.977-47.285-103.63-74.424-105.266z" opacity=".2" fill="#adc7ff"/><path class="b" d="M1272.499 1122.569H963.817a1.081 1.081 0 0 1 0-2.162h308.682a1.081 1.081 0 0 1 0 2.162zm-321.222 0h-15.869a1.081 1.081 0 0 1 0-2.162h15.869a1.081 1.081 0 0 1 0 2.162z"/><path class="c" d="M1121.426 1121.489h113.244a8.333 8.333 0 0 0 8.333-8.333v-98.2a4.014 4.014 0 0 0-1.039-2.693l-52.051-57.408a8.491 8.491 0 0 0-12.417-.178l-54.953 57.224a4.01 4.01 0 0 0-1.118 2.779z"/><path class="b" d="M1233.606 1122.57h-102.784a10.49 10.49 0 0 1-10.478-10.478v-97.415a5.068 5.068 0 0 1 1.419-3.527l54.748-57.012a9.748 9.748 0 0 1 14.4.208l51.852 57.187a5.083 5.083 0 0 1 1.319 3.421v97.141a10.49 10.49 0 0 1-10.476 10.475zm-49.984-169.346a7.637 7.637 0 0 0-5.546 2.411l-54.748 57.012a2.916 2.916 0 0 0-.817 2.029v97.419a8.325 8.325 0 0 0 8.317 8.316h102.783a8.325 8.325 0 0 0 8.317-8.316v-97.138a2.923 2.923 0 0 0-.759-1.969l-51.857-57.193a7.635 7.635 0 0 0-5.585-2.571z"/><path d="M1109.738 1121.489h121.577v-106.534a4.02 4.02 0 0 0-1.04-2.7l-52.122-57.486a8.391 8.391 0 0 0-12.269-.177l-55.026 57.3a4.013 4.013 0 0 0-1.119 2.782z" fill="#4277eb"/><path class="b" d="M1221.917 1122.57h-102.782a10.49 10.49 0 0 1-10.478-10.478v-97.414a5.071 5.071 0 0 1 1.42-3.531l54.746-57.01a9.749 9.749 0 0 1 14.4.208l51.85 57.186a5.086 5.086 0 0 1 1.32 3.423v97.141a10.49 10.49 0 0 1-10.476 10.475zm-49.989-169.345a7.637 7.637 0 0 0-5.545 2.411l-54.747 57.01a2.92 2.92 0 0 0-.818 2.033v97.416a8.325 8.325 0 0 0 8.317 8.316h102.782a8.325 8.325 0 0 0 8.317-8.316v-97.14a2.926 2.926 0 0 0-.76-1.972l-51.851-57.188a7.633 7.633 0 0 0-5.584-2.571z"/><path d="M1123.142 1000.787l47.386-.372 21.5 14.738h22.6l-40.57-32.622-38.72 5.462z" fill="#255ad0" opacity=".6"/><g transform="translate(1071.303 978.802)"><rect class="c" width="102.196" height="13.885" rx="6.943" transform="translate(1.08 1.081)"/><path class="b" d="M96.664 16.048H7.684A7.7 7.7 0 0 1-.004 8.359v-.67A7.7 7.7 0 0 1 7.684 0h88.98a7.7 7.7 0 0 1 7.688 7.689v.67a7.7 7.7 0 0 1-7.688 7.689zM7.684 2.163A5.532 5.532 0 0 0 2.158 7.69v.67a5.532 5.532 0 0 0 5.526 5.526h88.98a5.532 5.532 0 0 0 5.526-5.526v-.67a5.532 5.532 0 0 0-5.526-5.527z"/></g><path class="c" d="M988.043 1121.488h121.578v-107.716a.954.954 0 0 0-.247-.64l-53.2-58.678a7.994 7.994 0 0 0-11.687-.168l-55.322 57.609a4.015 4.015 0 0 0-1.119 2.781z"/><path class="b" d="M1100.223 1122.569H997.44a10.49 10.49 0 0 1-10.478-10.478v-97.414a5.072 5.072 0 0 1 1.42-3.531l54.747-57.01a9.748 9.748 0 0 1 14.4.208l52.644 58.062a2.029 2.029 0 0 1 .527 1.365v98.323a10.49 10.49 0 0 1-10.477 10.475zm-49.989-169.345a7.638 7.638 0 0 0-5.546 2.411l-54.747 57.01a2.92 2.92 0 0 0-.818 2.033v97.416a8.325 8.325 0 0 0 8.317 8.316h102.783a8.325 8.325 0 0 0 8.317-8.316v-98.319l-52.612-57.981a7.633 7.633 0 0 0-5.584-2.571z"/><circle class="f" cx="2.623" cy="2.623" r="2.623" transform="translate(1171.956 899.805)"/><circle class="f" cx="2.623" cy="2.623" r="2.623" transform="translate(1142.986 953.253)"/><circle class="f" cx="3.711" cy="3.711" r="3.711" transform="translate(993.919 944.53)"/><path class="f" d="M1256.396 1097.275v6.096m3.048-3.048h-6.096m-330.757-36.068v6.096m3.048-3.048h-6.096"/><path class="g" d="M977.6 1120.686h118.7a1.436 1.436 0 0 0 1.436-1.437v-104.546a5.445 5.445 0 0 0-1.411-3.658l-49.783-54.908a11.125 11.125 0 0 0-16.266-.233l-52.6 54.769a5.462 5.462 0 0 0-1.521 3.781v104.794a1.436 1.436 0 0 0 1.445 1.438z"/><path d="M1098.109 1104.091l-.177-89.525-.694-1.793-52.29-57.672a8.639 8.639 0 0 0-12.632-.181l-38.947 40.557a.734.734 0 0 0 .022 1.038l103.416 109.162c2.189.149 1.302-1.369 1.302-1.586z" opacity=".8" fill="#adc7ff"/><path class="b" d="M1088.535 1122.57H985.752a10.49 10.49 0 0 1-10.478-10.478v-97.411a5.079 5.079 0 0 1 1.422-3.535l54.745-57.008a9.748 9.748 0 0 1 14.4.208l51.852 57.188a5.076 5.076 0 0 1 1.319 3.42v97.141a10.49 10.49 0 0 1-10.477 10.475zm-49.989-169.346a7.637 7.637 0 0 0-5.545 2.411l-54.745 57.008a2.926 2.926 0 0 0-.82 2.037v97.415a8.325 8.325 0 0 0 8.317 8.316h102.783a8.325 8.325 0 0 0 8.317-8.316v-97.138a2.924 2.924 0 0 0-.758-1.968l-51.854-57.194a7.635 7.635 0 0 0-5.585-2.571z"/><path class="g" d="M1098.122 1015.154h144.866a.014.014 0 0 1 .014.014v95.814a10.507 10.507 0 0 1-10.507 10.507h-134.387v-106.321a.014.014 0 0 1 .014-.014z"/><path class="c" d="M1233.415 1109.853h-125.777a9.529 9.529 0 0 1-9.529-9.53v11.629a9.529 9.529 0 0 0 9.529 9.53h125.777a9.529 9.529 0 0 0 9.529-9.53v-11.63a9.529 9.529 0 0 1-9.529 9.531z"/><path class="b" d="M1233.547 1122.57h-126.041a10.49 10.49 0 0 1-10.478-10.478v-98.006l1.094-.013h145.89l.013 1.094v96.925a10.49 10.49 0 0 1-10.478 10.478zm-134.357-106.334v95.856a8.325 8.325 0 0 0 8.317 8.316h126.04a8.325 8.325 0 0 0 8.317-8.316v-95.856z"/><g transform="translate(1038.83 1085.327)"><path class="i" d="M4.175 9.387l24.36 6.257-2.653 11.988-6.041 3.1-19.842-4.75a22.852 22.852 0 0 0 38.628 13.195 23.052 23.052 0 0 0 2.162-2.447l69.287 14.24a8.831 8.831 0 0 0 10.428-6.873l.2-.964a8.833 8.833 0 0 0-6.873-10.429L45.084 18.576A22.85 22.85 0 0 0 6.645 6.529a23.058 23.058 0 0 0-2.47 2.858z"/><path class="j" d="M4.584 9.492l23.951 6.151-2.653 11.988-6.041 3.1L.408 26.078a.285.285 0 0 0-.348.318 22.852 22.852 0 0 0 38.567 12.78 23.053 23.053 0 0 0 2.162-2.447l69.287 14.24a8.831 8.831 0 0 0 10.428-6.873l.2-.964a8.832 8.832 0 0 0-6.873-10.429L45.084 18.575A22.765 22.765 0 0 0 38.095 6.02a23.064 23.064 0 0 0-26.636-3.068 22.2 22.2 0 0 0-7.032 6.1.283.283 0 0 0 .157.44z"/><rect width="55.997" height="7.165" rx="2.811" transform="rotate(11.813 -98.577 244.506)" fill="url(#a)"/><circle cx="3.288" cy="3.288" r="3.288" transform="translate(106.779 38.718)" fill="url(#b)"/><path class="j" d="M28.535 15.643L31.69 1.867"/></g><g transform="translate(1029.241 978.923)"><circle class="i" cx="7.903" cy="7.903" r="7.903"/><path d="M3.083 12.017a7.9 7.9 0 0 1 12.34-6.54 7.9 7.9 0 1 0-11.956 8.965 7.9 7.9 0 0 1-.384-2.425z" fill="#ffdf78"/><circle cx="7.903" cy="7.903" r="7.903" stroke="#0f44b8" stroke-width="2.3" fill="none" stroke-miterlimit="10"/></g><path class="b" d="M1284.763 1122.562h-7.753a1.081 1.081 0 1 1 0-2.161h7.753a1.081 1.081 0 1 1 0 2.161zm-325.104 0h-3.477a1.081 1.081 0 1 1 0-2.161h3.477a1.081 1.081 0 1 1 0 2.161zm78.335-170.385h12.51m-12.51-1.005h12.51v2.012h-12.51zm133.83.934h12.51m-12.51-1.006h12.51v2.012h-12.51z"/><path d="M1206.727 1042.746a14.281 14.281 0 0 0 1.444.52 47.213 47.213 0 0 1 5.973 2.611c.086.044.171.093.294.161a11.946 11.946 0 0 0-1.219.579.928.928 0 0 1-1.039-.014 44.014 44.014 0 0 0-6.924-2.953.6.6 0 0 1-.283-.129l1.592-.775z" fill="#5288b6"/><path class="p" d="M1207.472 1051.782c.062.039.117.07.168.1a69.551 69.551 0 0 1 10.308 8.128c.46.445.908.9 1.368 1.348.13.123.133.207 0 .342-.654.666-1.3 1.342-1.942 2.018-.106.112-.168.162-.308.02a85.355 85.355 0 0 0-11.761-9.93c-.3-.215-.3-.218 0-.439q.995-.739 1.995-1.473c.054-.037.113-.074.172-.114z"/><path class="q" d="M1210.261 1049.968l.169.1a57.94 57.94 0 0 1 7.811 5.706q1.744 1.514 3.362 3.161c.139.141.164.22.01.373a57.786 57.786 0 0 0-1.55 1.62c-.137.147-.208.117-.332-.01a65.353 65.353 0 0 0-10.666-8.751c-.3-.2-.608-.4-.915-.6-.117-.075-.184-.123-.018-.231.674-.431 1.342-.871 2.012-1.308.041-.023.08-.041.117-.06zm-1.495-.942l-.592.369a53.8 53.8 0 0 0-8.252 6.3 55.085 55.085 0 0 0-2.105 2.081c-.131.136-.2.142-.331 0q-.52-.589-1.066-1.157c-.123-.13-.132-.2 0-.338a51.772 51.772 0 0 1 4.04-3.76 50.184 50.184 0 0 1 6.18-4.41.37.37 0 0 1 .43-.01c.552.309 1.106.606 1.696.925z"/><path class="p" d="M1206.439 1047.781c-.054.1-.144.123-.218.171a48.816 48.816 0 0 0-10.025 8.032c-.152.16-.232.185-.382 0a11.287 11.287 0 0 0-.793-.862c-.146-.145-.142-.228 0-.378a49.617 49.617 0 0 1 4.449-4.063 47.95 47.95 0 0 1 4.988-3.515.569.569 0 0 1 .67-.039c.429.237.878.436 1.311.654zm8.124 2.908c.7-.415 1.333-.8 1.978-1.17q2.41-1.4 4.935-2.576a.339.339 0 0 1 .407.031c.5.375 1 .74 1.505 1.1.159.113.208.177-.008.3-2.129 1.2-4.187 2.515-6.21 3.891-.105.072-.19.145-.327.038a37.556 37.556 0 0 0-2.144-1.539 1.045 1.045 0 0 0-.136-.075z"/><path class="q" d="M1221.303 1046.563c-.657.308-1.252.585-1.842.871q-2.637 1.278-5.146 2.8a.326.326 0 0 1-.4 0c-.661-.431-1.331-.846-2.036-1.293l1.066-.593a51.753 51.753 0 0 1 6.28-2.9c.089-.034.175-.086.276-.023.581.371 1.166.74 1.802 1.138zm-9.002.475c-.644.348-1.259.677-1.875 1.013-.114.062-.185-.023-.266-.068a50.14 50.14 0 0 0-6.51-2.986l-.8-.3-.026-.061c.391-.211.8-.4 1.175-.642a1.18 1.18 0 0 1 1.162-.088 51.118 51.118 0 0 1 6.862 2.975z"/><path d="M1121.423 1079.797a9.3 9.3 0 0 1-3.3-.935 1.138 1.138 0 0 1-.369-.279v-.185c.441-.862.734-1.779 1.087-2.672.127-.323.246-.374.574-.262a12.629 12.629 0 0 0 5.851.594 3.007 3.007 0 0 0 .933-.289 1.484 1.484 0 0 0 .346-2.569 5.719 5.719 0 0 0-1.574-.9c-1-.431-2.011-.84-3-1.293a7.452 7.452 0 0 1-2.418-1.733 4.878 4.878 0 0 1 1.243-7.481 9.5 9.5 0 0 1 5.21-.985 12.443 12.443 0 0 1 4.467 1.092c.271.123.3.225.184.477-.35.8-.69 1.6-1 2.414-.119.307-.262.335-.557.246a11.871 11.871 0 0 0-4.651-.6 2.453 2.453 0 0 0-1.187.383 1.177 1.177 0 0 0-.185 1.857 3.807 3.807 0 0 0 1.163.771c.963.438 1.935.859 2.9 1.3a10.427 10.427 0 0 1 2.912 1.837 4.994 4.994 0 0 1-.742 7.927 9.294 9.294 0 0 1-4.106 1.293 21.179 21.179 0 0 1-3.781-.008zm45.234-6.847c-.159-3.838-.034-7.677-.082-11.515 0-.314.1-.392.4-.388 1.231.016 2.466.019 3.7 0 .326-.006.376.113.376.4q-.011 8.848 0 17.7c0 .323-.08.419-.411.415q-2.247-.027-4.5 0a.647.647 0 0 1-.648-.4q-3.215-5.646-6.451-11.28c-.093-.162-.19-.322-.294-.5-.142.116-.073.264-.068.383.17 3.756.037 7.521.092 11.281.007.416-.1.523-.514.513-1.2-.029-2.4-.018-3.6 0-.282 0-.373-.078-.369-.369q.011-8.9 0-17.792c0-.259.065-.35.337-.349 1.514.011 3.028.018 4.541 0 .312 0 .4.174.513.374l6.783 11.844.094.161c.049-.027.077.173.115.023a.838.838 0 0 0-.014-.501zm44.564 6.942c.206-.975.522-1.92.817-2.868.123-.4.09-.578-.362-.7a7.115 7.115 0 0 1-3.315-1.832c-.7-.708-1.362-1.46-2.051-2.182-.172-.18-.135-.253.061-.376a5.558 5.558 0 0 0 2.69-5.571 5.205 5.205 0 0 0-2.872-4.419 7.7 7.7 0 0 0-3.51-.871c-2.524-.036-5.055-.014-7.583-.032-.3 0-.359.093-.358.373q.011 8.871 0 17.741c0 .353.133.4.434.4 1.2-.015 2.4-.02 3.6 0 .359.006.472-.081.468-.458-.022-1.841 0-3.683-.017-5.524 0-.323.079-.434.413-.417a13.242 13.242 0 0 0 1.544-.008.735.735 0 0 1 .672.307c.945 1.1 1.885 2.206 2.866 3.274a9.076 9.076 0 0 0 5.426 3.064 6.085 6.085 0 0 0 1.077.099zm-9.223-9.941a16.833 16.833 0 0 1-2.519.107c-.273.006-.246-.157-.246-.332v-2.431c0-.78.01-1.559-.006-2.34-.006-.285.043-.419.375-.407a17.764 17.764 0 0 1 3.168.159 1.929 1.929 0 0 1 1.693 1.791 2.743 2.743 0 0 1-2.465 3.453zm-50.148 9.166q-2.993-8.844-5.956-17.7a.453.453 0 0 0-.527-.369c-1.639.014-3.277.018-4.916 0a.536.536 0 0 0-.6.422q-2.877 7.521-5.777 15.036c-.383 1-.76 2-1.161 3.048 1.368 0 2.677-.011 3.986.008a.548.548 0 0 0 .634-.431c.545-1.539 1.136-3.065 1.693-4.6a.479.479 0 0 1 .532-.382q2.74.021 5.48 0a.452.452 0 0 1 .515.386c.492 1.559 1.005 3.11 1.5 4.669a.429.429 0 0 0 .492.359c1.264-.015 2.528-.02 3.792 0 .378.004.436-.081.313-.446zm-7.574-8.208a258.86 258.86 0 0 0-3.413 0c-.179 0-.3 0-.226-.253.69-2.236 1.372-4.477 2.086-6.816l1.254 4.788c.173.661.334 1.326.521 1.984.064.228.022.3-.222.3zm48.033 8.232q-3-8.868-5.973-17.745a.43.43 0 0 0-.492-.351c-1.655.012-3.31.017-4.964 0a.5.5 0 0 0-.565.4c-.661 1.764-1.346 3.518-2.021 5.277q-2.369 6.167-4.741 12.335c-.191.5-.19.5.311.5 1.17 0 2.34-.011 3.51.008a.526.526 0 0 0 .6-.41c.549-1.539 1.134-3.065 1.692-4.6a.505.505 0 0 1 .566-.4q2.715.029 5.431 0c.334 0 .452.117.545.412.485 1.545 1 3.079 1.477 4.625a.447.447 0 0 0 .524.378c.624-.021 1.249-.006 1.873-.006.64 0 1.281-.017 1.92.006.369.001.421-.089.307-.429zm-7.541-8.234c-1.232-.008-2.459 0-3.75 0l2.156-7.076c.61 2.345 1.187 4.571 1.772 6.794.049.183.071.285-.178.284z" fill="#3a3e47"/></g></svg>