<svg xmlns="http://www.w3.org/2000/svg" xmlns:xlink="http://www.w3.org/1999/xlink" width="531.657" height="326.152" viewBox="0 0 531.657 326.152"><defs><style>.a,.b{fill:#adc7ff;}.a,.c{opacity:0.2;}.d,.r{fill:#fff;}.e{fill:#0f44b8;}.f{fill:#333;opacity:0.25;}.g{fill:#5288b6;}.h{fill:#5287b5;}.i{fill:#93be8c;}.j{fill:#3a3e47;}.k{fill:#4277eb;}.l{fill:#ffdf78;}.m,.o{fill:#e6b43e;}.m{stroke:#ffdf78;stroke-miterlimit:10;stroke-width:1.5px;}.n{opacity:0.4;fill:url(#a);}.p,.q,.r{opacity:0.6;}.q{fill:url(#b);}</style><linearGradient id="a" x1="1.309" y1="0.582" x2="-0.423" y2="0.399" gradientUnits="objectBoundingBox"><stop offset="0" stop-color="#ffdf78"/><stop offset="1" stop-color="#e6b43e"/></linearGradient><linearGradient id="b" x1="0" y1="0.5" x2="1" y2="0.5" xlink:href="#a"/></defs><g transform="translate(-728.248 -27.517)"><path class="a" d="M1099.523,92.7c-24.935-1.505-38.561,1.617-73.927-29.243s-57.844-38.068-80.5-35.442c-37.248,4.317-63.715,26.016-69.888,69.444-4.661,32.791-1.061,36.859-30.49,95.487s35.729,91.783,35.729,91.783S912.885,309,970.176,307.974c41.456-.742,69.294-30.014,109.9-37.648,68.472-12.873,87.823-80.916,87.823-80.916C1188.353,105.83,1124.457,94.205,1099.523,92.7Z" transform="translate(-2.463 0)"/><path class="b" d="M1035.228,317.024h-6.913a1.145,1.145,0,1,1,0-2.289h6.866a1.165,1.165,0,0,1,1.168,1.144A1.124,1.124,0,0,1,1035.228,317.024Zm-13.78,0h-6.866a1.145,1.145,0,0,1,0-2.289h6.866a1.145,1.145,0,1,1,0,2.289Zm-13.733,0h-6.866a1.145,1.145,0,0,1,0-2.289h6.866a1.145,1.145,0,1,1,0,2.289Zm-13.733,0h-6.866a1.145,1.145,0,1,1,0-2.289h6.866a1.145,1.145,0,1,1,0,2.289Zm-13.733,0h-6.866a1.145,1.145,0,1,1,0-2.289h6.866a1.145,1.145,0,1,1,0,2.289Zm-13.733,0H959.65a1.145,1.145,0,1,1,0-2.289h6.866a1.145,1.145,0,1,1,0,2.289Zm-13.733,0h-6.866a1.145,1.145,0,1,1,0-2.289h6.866a1.145,1.145,0,0,1,0,2.289Zm-13.733,0h-6.866a1.145,1.145,0,1,1,0-2.289h6.866a1.145,1.145,0,0,1,0,2.289Zm-13.732,0h-6.867a1.145,1.145,0,1,1,0-2.289h6.867a1.145,1.145,0,1,1,0,2.289Zm-13.733,0h0a5.16,5.16,0,0,1-5.154-5.155v-.562a1.145,1.145,0,0,1,2.289,0v.562a2.868,2.868,0,0,0,2.865,2.866,1.145,1.145,0,1,1,0,2.289Zm127.607-4.621a1.144,1.144,0,0,1-1.145-1.145v-6.866a1.145,1.145,0,0,1,2.289,0v6.866A1.144,1.144,0,0,1,1039.191,312.4Zm-131.619-6.818a1.144,1.144,0,0,1-1.145-1.144v-6.866a1.145,1.145,0,0,1,2.289,0v6.866A1.144,1.144,0,0,1,907.573,305.585Zm131.619-6.915a1.144,1.144,0,0,1-1.145-1.144V290.66a1.145,1.145,0,0,1,2.289,0v6.866A1.144,1.144,0,0,1,1039.191,298.67Zm-131.619-6.818a1.144,1.144,0,0,1-1.145-1.145v-6.866a1.145,1.145,0,0,1,2.289,0v6.866A1.144,1.144,0,0,1,907.573,291.852Zm131.619-6.915a1.144,1.144,0,0,1-1.145-1.145v-6.866a1.145,1.145,0,0,1,2.289,0v6.866A1.144,1.144,0,0,1,1039.191,284.937Zm-131.619-6.818a1.144,1.144,0,0,1-1.145-1.145v-6.866a1.145,1.145,0,0,1,2.289,0v6.866A1.144,1.144,0,0,1,907.573,278.119Zm131.619-6.915a1.144,1.144,0,0,1-1.145-1.145v-6.866a1.145,1.145,0,1,1,2.289,0v6.866A1.144,1.144,0,0,1,1039.191,271.2Zm-131.619-6.818a1.144,1.144,0,0,1-1.145-1.145v-6.866a1.145,1.145,0,0,1,2.289,0v6.866A1.144,1.144,0,0,1,907.573,264.386Zm131.619-6.915a1.144,1.144,0,0,1-1.145-1.145v-6.866a1.145,1.145,0,1,1,2.289,0v6.866A1.144,1.144,0,0,1,1039.191,257.471Zm-131.619-6.817a1.144,1.144,0,0,1-1.145-1.145v-6.867a1.145,1.145,0,0,1,2.289,0v6.867A1.144,1.144,0,0,1,907.573,250.654Zm131.619-6.916a1.144,1.144,0,0,1-1.145-1.145v-6.866a1.145,1.145,0,1,1,2.289,0v6.866A1.144,1.144,0,0,1,1039.191,243.738Zm-131.619-6.817a1.144,1.144,0,0,1-1.145-1.145v-6.867a1.145,1.145,0,0,1,2.289,0v6.867A1.144,1.144,0,0,1,907.573,236.921Zm131.619-6.916a1.144,1.144,0,0,1-1.145-1.145v-6.866a1.145,1.145,0,0,1,2.289,0v6.866A1.144,1.144,0,0,1,1039.191,230.005Zm-131.619-6.817a1.144,1.144,0,0,1-1.145-1.145v-6.867a1.145,1.145,0,0,1,2.289,0v6.867A1.144,1.144,0,0,1,907.573,223.188Zm131.619-6.916a1.144,1.144,0,0,1-1.145-1.145v-6.866a1.145,1.145,0,0,1,2.289,0v6.866A1.144,1.144,0,0,1,1039.191,216.272Zm-131.619-6.817a1.144,1.144,0,0,1-1.145-1.144v-6.867a1.145,1.145,0,0,1,2.289,0v6.867A1.144,1.144,0,0,1,907.573,209.455Zm131.619-6.915a1.144,1.144,0,0,1-1.145-1.145v-6.867a1.145,1.145,0,0,1,2.289,0V201.4A1.144,1.144,0,0,1,1039.191,202.54Zm-131.619-6.818a1.144,1.144,0,0,1-1.145-1.145V187.71a1.145,1.145,0,0,1,2.289,0v6.867A1.144,1.144,0,0,1,907.573,195.722Zm131.619-6.915a1.144,1.144,0,0,1-1.145-1.145V180.8a1.145,1.145,0,0,1,2.289,0v6.867A1.144,1.144,0,0,1,1039.191,188.807Zm-131.619-6.818a1.144,1.144,0,0,1-1.145-1.145v-6.867a1.145,1.145,0,0,1,2.289,0v6.867A1.144,1.144,0,0,1,907.573,181.989Zm131.619-6.915a1.144,1.144,0,0,1-1.145-1.144v-6.867a1.145,1.145,0,1,1,2.289,0v6.867A1.144,1.144,0,0,1,1039.191,175.074Zm-131.619-6.818a1.144,1.144,0,0,1-1.145-1.145v-6.867a1.145,1.145,0,0,1,2.289,0v6.867A1.144,1.144,0,0,1,907.573,168.256Zm131.619-6.915a1.144,1.144,0,0,1-1.145-1.145v-6.867a1.145,1.145,0,0,1,2.289,0V160.2A1.144,1.144,0,0,1,1039.191,161.341Zm-131.619-6.818a1.144,1.144,0,0,1-1.145-1.145v-6.867a1.145,1.145,0,0,1,2.289,0v6.867A1.144,1.144,0,0,1,907.573,154.523Zm131.619-6.915a1.144,1.144,0,0,1-1.145-1.145V139.6a1.145,1.145,0,0,1,2.289,0v6.867A1.144,1.144,0,0,1,1039.191,147.608ZM907.573,140.79a1.144,1.144,0,0,1-1.145-1.145v-.589a5.167,5.167,0,0,1,5.124-5.155h.007a1.145,1.145,0,0,1,.007,2.289,2.874,2.874,0,0,0-2.849,2.866v.589A1.144,1.144,0,0,1,907.573,140.79Zm127.583-4.6h-6.866a1.145,1.145,0,1,1,0-2.289h6.866a1.145,1.145,0,1,1,0,2.289Zm-13.733,0h-6.866a1.145,1.145,0,1,1,0-2.289h6.866a1.145,1.145,0,1,1,0,2.289Zm-13.733,0h-6.866a1.145,1.145,0,1,1,0-2.289h6.866a1.145,1.145,0,1,1,0,2.289Zm-13.733,0h-6.866a1.145,1.145,0,1,1,0-2.289h6.866a1.145,1.145,0,1,1,0,2.289Zm-13.733,0h-6.866a1.145,1.145,0,0,1,0-2.289h6.866a1.145,1.145,0,1,1,0,2.289Zm-13.732,0h-6.867a1.145,1.145,0,1,1,0-2.289h6.867a1.145,1.145,0,0,1,0,2.289Zm-13.733,0h-6.867a1.145,1.145,0,1,1,0-2.289h6.867a1.145,1.145,0,0,1,0,2.289Zm-13.733,0h-6.867a1.145,1.145,0,1,1,0-2.289h6.867a1.145,1.145,0,0,1,0,2.289Zm-13.733,0h-6.867a1.145,1.145,0,0,1,0-2.289h6.867a1.145,1.145,0,1,1,0,2.289Z" transform="translate(-4.032 -2.407)"/><g class="c" transform="translate(728.248 116.48)"><path class="b" d="M749.667,123.077q10.5-4.822,19.993-4.017a30.394,30.394,0,0,1,16.964,6.883,45.449,45.449,0,0,1,12.34,16.675,49.659,49.659,0,0,1,4.415,15.209,33.908,33.908,0,0,1-1.261,14.021,30.577,30.577,0,0,1-7.113,11.967,45.172,45.172,0,0,1-28.365,12.938,30.97,30.97,0,0,1-13.768-2.41,33.893,33.893,0,0,1-11.474-8.287,49.762,49.762,0,0,1-8.635-13.161,48.067,48.067,0,0,1-4.321-15.308,33.7,33.7,0,0,1,1.4-14.029,30.8,30.8,0,0,1,7.115-11.717A40.918,40.918,0,0,1,749.667,123.077Zm35.387,25.813a34.862,34.862,0,0,0-8.3-11.754,19.689,19.689,0,0,0-10.616-5.083,20.693,20.693,0,0,0-11.484,1.9,20.324,20.324,0,0,0-6.87,5.022,18.319,18.319,0,0,0-3.927,7.242,23.593,23.593,0,0,0-.505,9.351,37.473,37.473,0,0,0,3.276,10.964,38.371,38.371,0,0,0,6.23,9.744,23.465,23.465,0,0,0,7.643,5.836,18.936,18.936,0,0,0,8.186,1.793,21.142,21.142,0,0,0,16.677-8.994,19.975,19.975,0,0,0,3.281-11.324A34.5,34.5,0,0,0,785.054,148.891Z" transform="translate(-728.248 -118.548)"/><path class="b" d="M871.79,143.446A32.709,32.709,0,0,1,871.234,155a25.2,25.2,0,0,1-4.47,9.573,24.61,24.61,0,0,1-7.972,6.75,30.859,30.859,0,0,1-11.087,3.345A29.952,29.952,0,0,1,836.239,174a24.948,24.948,0,0,1-15.92-12.924A32.6,32.6,0,0,1,817.078,150a33,33,0,0,1,.543-11.655,25.024,25.024,0,0,1,4.425-9.516,24.362,24.362,0,0,1,7.978-6.7,33.01,33.01,0,0,1,22.553-2.677,24.534,24.534,0,0,1,15.968,12.894A32.861,32.861,0,0,1,871.79,143.446ZM858,145.1q-1.007-8.4-5.267-12.643a12.1,12.1,0,0,0-10.5-3.489,12.405,12.405,0,0,0-6.847,2.939,13.337,13.337,0,0,0-3.993,6.733,28.186,28.186,0,0,0,2.242,18.927,13.576,13.576,0,0,0,5.42,5.605,12.242,12.242,0,0,0,7.429,1.28,12.076,12.076,0,0,0,9.377-5.9Q858.994,153.4,858,145.1Z" transform="translate(-730.252 -118.539)"/><path class="b" d="M938.193,153.526a32.735,32.735,0,0,1-3.946,10.873,25.187,25.187,0,0,1-7.1,7.824,24.614,24.614,0,0,1-9.611,4.093,30.847,30.847,0,0,1-11.58-.081,29.993,29.993,0,0,1-10.756-4.027,24.953,24.953,0,0,1-11.39-17.052,32.626,32.626,0,0,1,.176-11.537,33,33,0,0,1,3.964-10.974,25.033,25.033,0,0,1,7.039-7.783,24.355,24.355,0,0,1,9.6-4.042,33.008,33.008,0,0,1,22.336,4.107,24.525,24.525,0,0,1,11.445,17.037A32.834,32.834,0,0,1,938.193,153.526Zm-13.663-2.5q1.52-8.329-1.3-13.635a12.1,12.1,0,0,0-9-6.438,12.405,12.405,0,0,0-7.41.784,13.328,13.328,0,0,0-5.8,5.252,28.177,28.177,0,0,0-3.452,18.746,13.583,13.583,0,0,0,3.522,6.956,12.225,12.225,0,0,0,6.718,3.418,12.073,12.073,0,0,0,10.7-2.863Q923.026,159.257,924.53,151.029Z" transform="translate(-731.759 -118.579)"/><path class="b" d="M998.525,182.824a32.732,32.732,0,0,1-6.837,9.33,25.212,25.212,0,0,1-9.008,5.519,24.617,24.617,0,0,1-10.374,1.232,30.816,30.816,0,0,1-11.093-3.327,29.947,29.947,0,0,1-9.194-6.882,24.951,24.951,0,0,1-6.151-19.562,32.629,32.629,0,0,1,3.406-11.024,32.992,32.992,0,0,1,6.883-9.422,25.028,25.028,0,0,1,8.94-5.5,24.366,24.366,0,0,1,10.351-1.186,32.989,32.989,0,0,1,20.286,10.208,24.521,24.521,0,0,1,6.206,19.562A32.8,32.8,0,0,1,998.525,182.824Zm-12.416-6.23q3.8-7.566,2.582-13.452a12.1,12.1,0,0,0-6.835-8.7,12.4,12.4,0,0,0-7.332-1.325,13.322,13.322,0,0,0-7.043,3.413,28.163,28.163,0,0,0-8.572,17.025,13.585,13.585,0,0,0,1.428,7.666,12.245,12.245,0,0,0,5.49,5.164,12.078,12.078,0,0,0,11.075.254Q982.359,184.07,986.109,176.595Z" transform="translate(-733.169 -119.068)"/><path class="b" d="M1053.077,218.264a32.716,32.716,0,0,1-7.686,8.644,25.2,25.2,0,0,1-9.489,4.645,24.619,24.619,0,0,1-10.443.247,30.853,30.853,0,0,1-10.729-4.357,29.944,29.944,0,0,1-8.505-7.72,24.953,24.953,0,0,1-4.276-20.055,32.62,32.62,0,0,1,4.429-10.653,33.057,33.057,0,0,1,7.741-8.731,25.055,25.055,0,0,1,9.419-4.628,24.363,24.363,0,0,1,10.417-.2,33.012,33.012,0,0,1,19.234,12.076,24.536,24.536,0,0,1,4.333,20.062A32.816,32.816,0,0,1,1053.077,218.264Zm-11.772-7.373q4.495-7.173,3.84-13.148a12.106,12.106,0,0,0-5.984-9.31,12.4,12.4,0,0,0-7.173-2.01,13.33,13.33,0,0,0-7.336,2.733,28.184,28.184,0,0,0-10.139,16.14,13.583,13.583,0,0,0,.7,7.765,12.245,12.245,0,0,0,4.978,5.661,12.075,12.075,0,0,0,11,1.3Q1036.867,217.981,1041.306,210.891Z" transform="translate(-734.429 -119.816)"/><path class="b" d="M1112.475,247.879a32.654,32.654,0,0,1-6.587,9.508,25.192,25.192,0,0,1-8.857,5.758,24.6,24.6,0,0,1-10.338,1.506,30.81,30.81,0,0,1-11.177-3.029,29.94,29.94,0,0,1-9.375-6.635,24.943,24.943,0,0,1-6.666-19.392,32.587,32.587,0,0,1,3.11-11.111,33,33,0,0,1,6.63-9.6,25.035,25.035,0,0,1,8.79-5.731,24.36,24.36,0,0,1,10.316-1.462,33,33,0,0,1,20.551,9.664,24.539,24.539,0,0,1,6.724,19.391A32.823,32.823,0,0,1,1112.475,247.879Zm-12.576-5.9q3.595-7.665,2.224-13.515a12.108,12.108,0,0,0-7.064-8.52,12.4,12.4,0,0,0-7.365-1.13,13.328,13.328,0,0,0-6.951,3.6,28.166,28.166,0,0,0-8.115,17.246,13.575,13.575,0,0,0,1.632,7.624,12.247,12.247,0,0,0,5.626,5.019,12.076,12.076,0,0,0,11.077-.042Q1096.348,249.554,1099.9,241.982Z" transform="translate(-735.741 -120.555)"/><path class="b" d="M1144.714,237.171l-.5,1.6a27.339,27.339,0,0,1,9.846-4.342,19.861,19.861,0,0,1,9.77.677,22.082,22.082,0,0,1,10.252,6.642,22.717,22.717,0,0,1,5.246,11.719,33.653,33.653,0,0,1-1.483,15.254,36.588,36.588,0,0,1-5.2,10.671,26.352,26.352,0,0,1-7.385,7.1,21.576,21.576,0,0,1-8.749,3.117,21.919,21.919,0,0,1-9.365-.87,19.289,19.289,0,0,1-8.8-5.235,28.459,28.459,0,0,1-5.254-8.962l-6.176,19.846q-2.712,8.713-9.051,6.74-3.73-1.161-4.238-3.788a14.855,14.855,0,0,1,.831-6.935l17.743-57.019q1.176-3.775,3.4-5.126a5.963,5.963,0,0,1,5.082-.463,6.224,6.224,0,0,1,3.979,3.336A8.179,8.179,0,0,1,1144.714,237.171Zm19.916,27.276a23.92,23.92,0,0,0,1.2-9.478,13.8,13.8,0,0,0-2.635-7.138,11.108,11.108,0,0,0-5.643-3.959,12.319,12.319,0,0,0-10.563,1.44q-5.091,3.14-7.7,11.514-2.454,7.889-.09,13.43a12.208,12.208,0,0,0,7.882,7.257,11.113,11.113,0,0,0,6.694-.015,13.774,13.774,0,0,0,6.285-4.335A23.829,23.829,0,0,0,1164.63,264.446Z" transform="translate(-736.965 -121.003)"/><path class="b" d="M1234.469,290.335a16.05,16.05,0,0,1-13.742,13.731,36.934,36.934,0,0,1-13.419-.334,32.335,32.335,0,0,1-12.149-4.557,18.6,18.6,0,0,1-6.694-7.034,11.482,11.482,0,0,1-1.247-7.213,5.317,5.317,0,0,1,2.3-3.546,5.562,5.562,0,0,1,4.332-.85,4.792,4.792,0,0,1,3.1,1.653,11.644,11.644,0,0,1,1.652,3.346,15.166,15.166,0,0,0,4.009,6.358,15.358,15.358,0,0,0,7.62,3.26,11.675,11.675,0,0,0,7.04-.583q2.954-1.337,3.386-3.68a5.763,5.763,0,0,0-1.752-5.736,34.162,34.162,0,0,0-8.37-4.789,75.311,75.311,0,0,1-10.766-5.773,19.131,19.131,0,0,1-6.121-6.361,11.78,11.78,0,0,1-1.219-8.214,13.853,13.853,0,0,1,3.868-7.277,17.022,17.022,0,0,1,8.274-4.479,28.028,28.028,0,0,1,11.89-.052,38.47,38.47,0,0,1,9.3,2.847,24.155,24.155,0,0,1,6.487,4.237,14.776,14.776,0,0,1,3.534,4.879,8.128,8.128,0,0,1,.662,4.657,5.154,5.154,0,0,1-2.277,3.55,6.328,6.328,0,0,1-4.738.673,5.559,5.559,0,0,1-3.343-1.853,23.875,23.875,0,0,1-2.7-4.21,12.518,12.518,0,0,0-3.051-3.862,11.653,11.653,0,0,0-5.463-2.244,11.314,11.314,0,0,0-6.421.44,4.657,4.657,0,0,0-3.165,3.464,4.308,4.308,0,0,0,1.147,3.845,15.116,15.116,0,0,0,4.418,3.16q2.873,1.459,7.97,3.737a45.551,45.551,0,0,1,9.666,5.6,17.5,17.5,0,0,1,5.149,6.18A11.412,11.412,0,0,1,1234.469,290.335Z" transform="translate(-738.63 -121.459)"/><path class="b" d="M1257.986,275.437l-2.2-24.237q-.625-7.083-.7-10.175a9.227,9.227,0,0,1,2.048-6.614,7.574,7.574,0,0,1,5.747-2.5q4.357-.1,5.9,2.878t1.675,8.657a66.341,66.341,0,0,1-.193,6.8l-1.587,25.036a19.574,19.574,0,0,1-1.359,6.878,3.982,3.982,0,0,1-3.8,2.474,3.834,3.834,0,0,1-3.856-2.217A22.963,22.963,0,0,1,1257.986,275.437Zm6.416,33.215a7.986,7.986,0,0,1-5.445-1.875,7.018,7.018,0,0,1-2.437-5.546,7.529,7.529,0,0,1,7.422-7.731,7.512,7.512,0,0,1,5.5,2.075,7.205,7.205,0,0,1,2.382,5.293,7.077,7.077,0,0,1-2.148,5.629A7.764,7.764,0,0,1,1264.4,308.652Z" transform="translate(-740.169 -121.105)"/></g><rect class="b" width="131.619" height="180.833" rx="3.503" transform="translate(956.941 91.622)"/><g transform="translate(926.862 111.901)"><path class="d" d="M1031.764,115.355H936.97a4.01,4.01,0,0,0-4.01,4.01V292.179a4.01,4.01,0,0,0,4.01,4.009h123.6a4.009,4.009,0,0,0,4.009-4.009V147.669Z" transform="translate(-931.494 -113.889)"/><path class="e" d="M1060.536,297.621h-123.6a5.482,5.482,0,0,1-5.475-5.476V119.331a5.482,5.482,0,0,1,5.475-5.476h95.4l33.68,33.167V292.144A5.482,5.482,0,0,1,1060.536,297.621Zm-123.6-180.833a2.546,2.546,0,0,0-2.543,2.544V292.144a2.546,2.546,0,0,0,2.543,2.544h123.6a2.546,2.546,0,0,0,2.543-2.544v-143.9l-31.95-31.462Z" transform="translate(-931.46 -113.855)"/><g transform="translate(100.27 1.466)"><path class="f" d="M1065.486,160.911l-27.749-12.494h27.651Z" transform="translate(-1034.134 -116.103)"/><path class="e" d="M1066.866,147.669h-28.8a4.009,4.009,0,0,1-4.01-4.009v-28.3" transform="translate(-1034.051 -115.355)"/></g></g><path class="b" d="M1138.725,198.44a3.766,3.766,0,1,1,3.765-3.767A3.771,3.771,0,0,1,1138.725,198.44Zm0-6.388a2.622,2.622,0,1,0,2.62,2.621A2.624,2.624,0,0,0,1138.725,192.052Z" transform="translate(-9.203 -3.697)"/><g transform="translate(1041.056 325.851)"><path class="b" d="M1052.669,341.327a.572.572,0,0,1-.573-.572v-7.424a.572.572,0,1,1,1.145,0v7.424A.572.572,0,0,1,1052.669,341.327Z" transform="translate(-1048.384 -332.758)"/><path class="b" d="M1056.3,337.7h-7.425a.572.572,0,1,1,0-1.145h7.425a.572.572,0,0,1,0,1.145Z" transform="translate(-1048.298 -332.844)"/></g><g transform="translate(1106.154 166.141)"><path class="b" d="M1119.275,177.92a.572.572,0,0,1-.573-.573v-7.424a.572.572,0,1,1,1.145,0v7.424A.572.572,0,0,1,1119.275,177.92Z" transform="translate(-1114.989 -169.35)"/><path class="b" d="M1122.9,174.292h-7.424a.572.572,0,1,1,0-1.145h7.424a.572.572,0,1,1,0,1.145Z" transform="translate(-1114.903 -169.436)"/></g><g transform="translate(960.668 74.784)"><path class="b" d="M970.42,84.448a.572.572,0,0,1-.573-.572V76.451a.572.572,0,1,1,1.145,0v7.425A.571.571,0,0,1,970.42,84.448Z" transform="translate(-966.135 -75.878)"/><path class="b" d="M974.046,80.822h-7.425a.572.572,0,0,1,0-1.145h7.425a.572.572,0,0,1,0,1.145Z" transform="translate(-966.049 -75.964)"/></g><g transform="translate(876.596 219.528)"><path class="b" d="M883.233,230.255a.572.572,0,0,1-.573-.572v-5.138a.572.572,0,0,1,1.144,0v5.138A.572.572,0,0,1,883.233,230.255Z" transform="translate(-880.091 -223.973)"/><path class="b" d="M885.742,227.746H880.6a.572.572,0,1,1,0-1.145h5.138a.572.572,0,0,1,0,1.145Z" transform="translate(-880.031 -224.032)"/></g><path class="b" d="M864.608,250.177a3.989,3.989,0,1,1,3.99-3.989A3.993,3.993,0,0,1,864.608,250.177Zm0-6.72a2.732,2.732,0,1,0,2.732,2.732A2.735,2.735,0,0,0,864.608,243.457Z" transform="translate(-2.995 -4.858)"/><g transform="translate(906.177 90.478)"><path class="e" d="M922.5,109.123l-6.765-4.841q-1.975-1.418-2.8-2.081a3.578,3.578,0,0,1-1.359-1.9,1.987,1.987,0,0,1,.406-1.792,1.617,1.617,0,0,1,1.842-.647A8.235,8.235,0,0,1,916.4,99.4q.893.717,1.75,1.533l6.278,5.836a7.867,7.867,0,0,1,1.554,1.8,1.134,1.134,0,0,1-.05,1.364,1.092,1.092,0,0,1-1.293.35A9.21,9.21,0,0,1,922.5,109.123Z" transform="translate(-910.324 -92.068)"/><path class="e" d="M927.256,103.72,925,97.494q-.655-1.821-.9-2.627a2.849,2.849,0,0,1-.037-1.856,1.586,1.586,0,0,1,1.074-.993,1.287,1.287,0,0,1,1.5.407,6.537,6.537,0,0,1,1,2.171q.262.872.456,1.794l1.488,6.66a6.246,6.246,0,0,1,.206,1.883.9.9,0,0,1-.648.873.868.868,0,0,1-1.006-.354A7.333,7.333,0,0,1,927.256,103.72Z" transform="translate(-910.605 -91.935)"/><path class="e" d="M919.04,114.592l-4.824.652q-1.411.188-2.027.237a2.09,2.09,0,0,1-1.339-.262,1.167,1.167,0,0,1-.547-.927.947.947,0,0,1,.526-1.014,4.82,4.82,0,0,1,1.715-.381q.669-.053,1.361-.048l5.016-.032a4.609,4.609,0,0,1,1.386.144.664.664,0,0,1,.526.6.639.639,0,0,1-.41.668A5.4,5.4,0,0,1,919.04,114.592Z" transform="translate(-910.297 -92.408)"/></g><g transform="translate(966.097 164.871)"><circle class="e" cx="3.915" cy="3.915" r="3.915" transform="translate(47.106)"/><circle class="e" cx="3.915" cy="3.915" r="3.915"/><path class="e" d="M1008.592,182.3a1.564,1.564,0,0,0-.956-.734c-9.053-2.429-16.553,3.507-16.868,3.76a1.574,1.574,0,0,0,1.969,2.456c.067-.052,6.652-5.167,14.084-3.175a1.573,1.573,0,0,0,1.771-2.307Z" transform="translate(-972.024 -168.343)"/></g><g transform="translate(939.683 123.638)"><path class="b" d="M947.672,131.934V131.1h-2.244a.923.923,0,0,1-.637-.192.67.67,0,0,1-.213-.524.517.517,0,0,1,.031-.172.965.965,0,0,1,.094-.183c.042-.064.085-.126.13-.186l.165-.219,2.37-3.17a3.631,3.631,0,0,1,.382-.454.507.507,0,0,1,.36-.141q.679,0,.679.778V130.1h.193a1.363,1.363,0,0,1,.552.094.4.4,0,0,1,.208.411.429.429,0,0,1-.17.377.892.892,0,0,1-.51.118h-.273v.832a.741.741,0,0,1-.151.512.524.524,0,0,1-.407.167.515.515,0,0,1-.4-.172A.733.733,0,0,1,947.672,131.934ZM945.75,130.1h1.923v-2.6Z" transform="translate(-944.578 -125.863)"/><path class="b" d="M955.048,129.289a7.786,7.786,0,0,1-.089,1.261,2.929,2.929,0,0,1-.331.957,2.2,2.2,0,0,1-.787.814,2.14,2.14,0,0,1-2.291-.1,2.345,2.345,0,0,1-.811-1.064,3.965,3.965,0,0,1-.2-.82,6.867,6.867,0,0,1-.065-.973,9.306,9.306,0,0,1,.071-1.216,4.013,4.013,0,0,1,.224-.93,2,2,0,0,1,1.968-1.318,2.24,2.24,0,0,1,.836.15,1.921,1.921,0,0,1,.66.438,2.509,2.509,0,0,1,.48.713A5.106,5.106,0,0,1,955.048,129.289Zm-1.225-.089a7.353,7.353,0,0,0-.1-1.339,1.637,1.637,0,0,0-.33-.787.811.811,0,0,0-.644-.267.826.826,0,0,0-.82.6,5.416,5.416,0,0,0-.231,1.833,7.8,7.8,0,0,0,.1,1.377,1.722,1.722,0,0,0,.33.811.863.863,0,0,0,1.274-.011,1.777,1.777,0,0,0,.327-.818A8.341,8.341,0,0,0,953.823,129.2Z" transform="translate(-944.711 -125.864)"/><path class="b" d="M958.806,131.934V131.1h-2.245a.927.927,0,0,1-.637-.192.672.672,0,0,1-.212-.524.494.494,0,0,1,.031-.172.951.951,0,0,1,.094-.183c.042-.064.085-.126.13-.186l.165-.219,2.37-3.17a3.539,3.539,0,0,1,.382-.454.5.5,0,0,1,.36-.141q.679,0,.679.778V130.1h.192a1.363,1.363,0,0,1,.552.094.4.4,0,0,1,.207.411.429.429,0,0,1-.169.377.9.9,0,0,1-.51.118h-.273v.832a.741.741,0,0,1-.151.512.525.525,0,0,1-.408.167.518.518,0,0,1-.4-.172A.737.737,0,0,1,958.806,131.934Zm-1.922-1.833h1.922v-2.6Z" transform="translate(-944.83 -125.863)"/></g><g transform="translate(947.09 236.021)"><path class="g" d="M1034.941,240.848a13.221,13.221,0,0,0,1.315.474,42.993,42.993,0,0,1,5.434,2.375c.078.041.154.085.267.147a10.909,10.909,0,0,0-1.108.526.842.842,0,0,1-.945-.013,40.179,40.179,0,0,0-6.3-2.686.55.55,0,0,1-.258-.117l1.449-.706Z" transform="translate(-953.994 -240.848)"/><path class="h" d="M1035.622,249.259c.057.035.105.064.152.094a63.221,63.221,0,0,1,9.379,7.395c.418.406.825.822,1.244,1.227.118.112.122.189,0,.311-.6.606-1.182,1.221-1.766,1.837-.1.1-.152.147-.28.018a77.718,77.718,0,0,0-10.7-9.035c-.273-.2-.276-.2,0-.4q.906-.673,1.816-1.34C1035.514,249.329,1035.568,249.3,1035.622,249.259Z" transform="translate(-953.996 -241.038)"/><path class="i" d="M1038.221,247.571c.057.033.107.062.154.091a52.642,52.642,0,0,1,7.106,5.191q1.588,1.377,3.059,2.876c.127.128.149.2.01.339-.481.481-.949.974-1.411,1.474-.124.133-.189.107-.3-.01a59.372,59.372,0,0,0-9.7-7.961c-.276-.184-.552-.367-.832-.545-.108-.067-.168-.111-.018-.21.614-.392,1.222-.793,1.832-1.189C1038.152,247.6,1038.188,247.589,1038.221,247.571Z" transform="translate(-954.059 -241)"/><path class="i" d="M1036.615,246.673l-.539.336a48.9,48.9,0,0,0-7.506,5.734q-.985.919-1.916,1.894c-.118.123-.186.128-.3,0q-.472-.538-.969-1.053c-.111-.118-.12-.184,0-.308a47.154,47.154,0,0,1,3.676-3.421,45.552,45.552,0,0,1,5.622-4.012.337.337,0,0,1,.392-.01C1035.573,246.113,1036.078,246.384,1036.615,246.673Z" transform="translate(-953.812 -240.96)"/><path class="h" d="M1034.472,245.52c-.049.089-.131.111-.2.154a44.405,44.405,0,0,0-9.12,7.308c-.139.145-.211.168-.348,0a10.09,10.09,0,0,0-.721-.784c-.133-.132-.129-.208,0-.344a44.86,44.86,0,0,1,4.047-3.7,43.479,43.479,0,0,1,4.538-3.2.519.519,0,0,1,.61-.036C1033.665,245.14,1034.073,245.322,1034.472,245.52Z" transform="translate(-953.782 -240.938)"/><path class="h" d="M1042.273,248.162c.634-.377,1.213-.728,1.8-1.064q2.193-1.27,4.49-2.344a.309.309,0,0,1,.37.028c.452.341.909.672,1.369,1,.145.1.189.161-.007.273-1.937,1.094-3.81,2.288-5.65,3.54-.1.065-.172.131-.3.033-.63-.494-1.288-.952-1.949-1.4A1.211,1.211,0,0,0,1042.273,248.162Z" transform="translate(-954.196 -240.935)"/><path class="i" d="M1048.348,244.377c-.6.28-1.139.533-1.676.792q-2.4,1.164-4.681,2.55a.3.3,0,0,1-.369,0c-.6-.392-1.21-.769-1.851-1.176.339-.19.653-.367.969-.539a46.879,46.879,0,0,1,5.714-2.639c.081-.031.159-.079.251-.021C1047.237,243.68,1047.77,244.015,1048.348,244.377Z" transform="translate(-954.14 -240.904)"/><path class="i" d="M1039.968,244.776c-.585.316-1.146.616-1.705.922-.1.056-.168-.023-.242-.062a45.573,45.573,0,0,0-5.921-2.717l-.725-.273s-.006-.014-.024-.057c.356-.191.728-.361,1.069-.583a1.077,1.077,0,0,1,1.057-.081,46.582,46.582,0,0,1,6.243,2.707C1039.8,244.676,1039.871,244.721,1039.968,244.776Z" transform="translate(-953.949 -240.87)"/><path class="j" d="M955.5,274.936a8.446,8.446,0,0,1-3.006-.85,1.03,1.03,0,0,1-.335-.254v-.168c.4-.784.668-1.619.988-2.431.116-.294.224-.34.523-.238a11.492,11.492,0,0,0,5.323.54,2.758,2.758,0,0,0,.849-.263,1.349,1.349,0,0,0,.315-2.337,5.2,5.2,0,0,0-1.432-.822c-.911-.392-1.83-.764-2.73-1.177a6.771,6.771,0,0,1-2.2-1.577,4.436,4.436,0,0,1,1.131-6.805,8.648,8.648,0,0,1,4.74-.9,11.286,11.286,0,0,1,4.063.994c.247.111.271.2.168.433-.318.728-.627,1.457-.912,2.2-.109.281-.239.3-.507.224a10.808,10.808,0,0,0-4.231-.55,2.235,2.235,0,0,0-1.08.349,1.07,1.07,0,0,0-.168,1.689,3.455,3.455,0,0,0,1.059.7c.877.4,1.76.782,2.636,1.181a9.468,9.468,0,0,1,2.65,1.671,4.542,4.542,0,0,1-.675,7.212,8.455,8.455,0,0,1-3.735,1.177A19.17,19.17,0,0,1,955.5,274.936Z" transform="translate(-952.157 -241.228)"/><path class="j" d="M997.42,268.712c-.145-3.491-.03-6.984-.074-10.475,0-.286.088-.357.363-.353,1.121.015,2.244.017,3.365,0,.3,0,.341.1.341.364q-.01,8.052,0,16.1c0,.3-.072.381-.373.378q-2.044-.025-4.089,0a.589.589,0,0,1-.59-.361q-2.925-5.136-5.869-10.261c-.085-.148-.173-.293-.268-.455-.129.106-.066.24-.062.349.154,3.417.033,6.842.084,10.263.006.378-.093.476-.468.467-1.093-.026-2.184-.017-3.279,0-.257,0-.339-.071-.336-.336q.01-8.093,0-16.186c0-.236.06-.319.307-.318,1.377.011,2.754.017,4.131,0,.284,0,.362.158.467.341L997.24,269l.086.147c.044-.025.069.157.1.021A.761.761,0,0,0,997.42,268.712Z" transform="translate(-952.926 -241.233)"/><path class="j" d="M1038.815,275.028c.188-.886.474-1.747.743-2.609.112-.366.083-.526-.328-.633a6.479,6.479,0,0,1-3.017-1.666c-.64-.644-1.238-1.329-1.866-1.986-.156-.163-.123-.23.056-.341a5.056,5.056,0,0,0,2.446-5.069,4.734,4.734,0,0,0-2.613-4.02,7.027,7.027,0,0,0-3.193-.793c-2.3-.031-4.6-.013-6.9-.028-.272,0-.326.085-.326.339q.01,8.071,0,16.14c0,.322.121.365.4.361,1.093-.013,2.184-.018,3.279,0,.326.007.429-.073.425-.416-.019-1.674,0-3.349-.016-5.025,0-.294.072-.4.375-.38a11.81,11.81,0,0,0,1.4-.008.667.667,0,0,1,.611.281c.861,1,1.715,2.007,2.609,2.978a8.262,8.262,0,0,0,4.937,2.787A5.55,5.55,0,0,0,1038.815,275.028Zm-8.39-9.044a15.22,15.22,0,0,1-2.292.1c-.249,0-.224-.143-.224-.3v-2.212c0-.71.009-1.419-.006-2.129,0-.259.039-.381.341-.37a16.144,16.144,0,0,1,2.882.145,1.755,1.755,0,0,1,1.54,1.629A2.5,2.5,0,0,1,1030.425,265.984Z" transform="translate(-953.778 -241.233)"/><path class="j" d="M983.5,274.323q-2.723-8.046-5.419-16.1a.414.414,0,0,0-.48-.336c-1.49.014-2.982.017-4.472,0a.488.488,0,0,0-.544.384q-2.617,6.844-5.256,13.679c-.349.908-.692,1.817-1.056,2.774,1.245,0,2.436-.011,3.626.007a.5.5,0,0,0,.578-.392c.5-1.4,1.033-2.788,1.541-4.186a.435.435,0,0,1,.484-.348q2.491.021,4.985,0a.412.412,0,0,1,.468.352c.449,1.418.915,2.83,1.361,4.247a.392.392,0,0,0,.449.327c1.15-.015,2.3-.019,3.45,0C983.556,274.733,983.611,274.656,983.5,274.323Zm-6.891-7.467c-1.035-.009-2.07,0-3.105,0-.164,0-.276,0-.206-.23.627-2.035,1.248-4.073,1.9-6.2l1.141,4.355c.156.6.3,1.207.473,1.805.059.207.02.272-.2.27Z" transform="translate(-952.476 -241.234)"/><path class="j" d="M1021.159,274.346q-2.728-8.066-5.433-16.143a.391.391,0,0,0-.449-.319c-1.505.011-3.01.015-4.515,0a.457.457,0,0,0-.514.362c-.6,1.6-1.224,3.2-1.838,4.8l-4.313,11.222c-.174.451-.173.452.282.453,1.064,0,2.129-.011,3.193.007a.479.479,0,0,0,.55-.373c.5-1.4,1.032-2.788,1.538-4.187a.461.461,0,0,1,.515-.368q2.47.028,4.941,0a.435.435,0,0,1,.5.376c.441,1.4.911,2.8,1.345,4.207a.407.407,0,0,0,.477.344c.567-.019,1.136-.006,1.7-.006s1.165-.016,1.747.006C1021.216,274.737,1021.264,274.654,1021.159,274.346Zm-6.86-7.491c-1.12-.007-2.236,0-3.411,0l1.961-6.438c.555,2.133,1.08,4.158,1.613,6.181C1014.506,266.763,1014.526,266.857,1014.3,266.855Z" transform="translate(-953.33 -241.233)"/></g><g transform="translate(1025.973 235.485)"><circle class="d" cx="28.613" cy="28.613" r="28.613" transform="translate(10.247 10.205)"/><path class="b" d="M1071.725,279H1105.2s.75-13.616-9.442-23.793c-8.734-8.72-23.614-7.724-23.614-7.724Z" transform="translate(-1033.745 -240.462)"/><g transform="translate(7.197 6.874)"><path class="d" d="M1047.621,301.13h31.117V247.481s-36.046-3.995-38.413,29.614C1039.252,292.331,1047.621,301.13,1047.621,301.13Z" transform="translate(-1040.23 -247.333)"/><path class="k" d="M1047.758,301.13c8.217.091,15.058,1.053,23.275,1.126l3.9.024a15.88,15.88,0,0,0,2.209-.071,5.662,5.662,0,0,0,4.231-3.182,5.454,5.454,0,0,0,.522-1.992c.015-.234.023-.47.021-.606l.01-3.9.04-15.6-.085-29.377-3.26-.216-.086,29.593.04,15.6.011,3.9c0,.189-.007.278-.01.367a2.58,2.58,0,0,1-.033.283,2.4,2.4,0,0,1-.176.539,2.3,2.3,0,0,1-.711.883c-.661.517-1.2.5-2.722.489l-3.9.024c-8.483.076-16.268.113-24.751.21" transform="translate(-1040.367 -247.333)"/></g><path class="l" d="M1071.478,240.3a38.612,38.612,0,1,0,38.613,38.612A38.612,38.612,0,0,0,1071.478,240.3Zm0,71.461a32.849,32.849,0,1,1,32.85-32.849A32.849,32.849,0,0,1,1071.478,311.761Z" transform="translate(-1032.866 -240.3)"/><g transform="translate(2.807 2.665)"><path class="m" d="M1141.795,349.351l-35.308-39.9-1.132,1-5.988-6.764-6.3,5.576,5.986,6.764-1.408,1.247,35.307,39.9a5.9,5.9,0,1,0,8.841-7.825Z" transform="translate(-1037.035 -244.4)"/><path class="n" d="M0,0H5.579a0,0,0,0,1,0,0V46.28a2.437,2.437,0,0,1-2.437,2.437h-.7A2.437,2.437,0,0,1,0,46.28V0A0,0,0,0,1,0,0Z" transform="matrix(0.749, -0.663, 0.663, 0.749, 65.095, 73.251)"/><path class="o" d="M1071.79,243.027a36.052,36.052,0,1,0,36.052,36.052A36.053,36.053,0,0,0,1071.79,243.027Zm0,64.665a28.613,28.613,0,1,1,28.613-28.613A28.613,28.613,0,0,1,1071.79,307.692Z" transform="translate(-1035.738 -243.027)"/><g class="p" transform="translate(7.439 7.334)"><circle class="q" cx="28.613" cy="28.613" r="28.613"/><path class="r" d="M1070.383,307.869,1094.64,261.2a24.654,24.654,0,0,0-2.084-2.279l-25.238,48.555S1069.205,307.806,1070.383,307.869Z" transform="translate(-1043.892 -250.72)"/><path class="r" d="M1083.781,305.823l16.85-32.417a28.209,28.209,0,0,0-3.759-9.2L1074.09,308.03A27.339,27.339,0,0,0,1083.781,305.823Z" transform="translate(-1044.045 -250.84)"/></g></g></g></g></svg>